<svg width="128" height="128" xmlns="http://www.w3.org/2000/svg">
 <g>
  <title>f0x0rz</title>
  <!-- This is the personal emblem of Ironykins. https://github.com/Ironykins -->
  <!-- Be cool and don't reproduce without permission -->
 </g>
 
 <!-- Red Fox Colours -->
 <!-- #fffff1 #ffd995 #b75800 #632705 #0b0706 -->

 <!-- Terminal Colours -->
 <!-- #96ee89 #50cc60 #1d813e #08542f #012d21 -->

 <style type="text/css">
    polygon.highlight   { fill:#C3FDB8; }
    polygon.main        { fill:#1d611d; } 
    polygon.bits     { fill:black; }
    polygon.outline { 
        fill:none; 
        stroke:black;
        stroke-width:4;
    }
 </style>
 
 <polygon class="main" id="face" points="20,10 64,50 108,10 108,80 64,120 20,80"/>
 <polygon class="bits" id="nose" points="53,99 64,110 75,99"/>
 <polygon class="highlight" id="left_ear" points="20,10 20,25 37,25" />
 <polygon class="highlight" id="right_ear" points="108,10 108,25 91,25" />
 <polygon class="bits" id="left_eye" points="32,50 32,60 42,60"/>
 <polygon class="bits" id="right_eye" points="96,50 96,60 86,60"/>
 <polygon class="highlight" id="chin" points="20,68 64,108 108,68 108,80 64,120 20,80"/>
 <polygon class="outline" id="stroke" points="20,10 64,50 108,10 108,80 64,120 20,80"/>
</svg>
